<svg id="visual" viewBox="0 0 900 600" width="900" height="600" xmlns="http://www.w3.org/2000/svg" xmlns:xlink="http://www.w3.org/1999/xlink" version="1.1"><rect x="0" y="0" width="900" height="600" fill="#171717"></rect><defs><linearGradient id="grad1_0" x1="33.3%" y1="0%" x2="100%" y2="100%"><stop offset="20%" stop-color="#171717" stop-opacity="1"></stop><stop offset="80%" stop-color="#171717" stop-opacity="1"></stop></linearGradient></defs><defs><linearGradient id="grad2_0" x1="0%" y1="0%" x2="66.7%" y2="100%"><stop offset="20%" stop-color="#171717" stop-opacity="1"></stop><stop offset="80%" stop-color="#171717" stop-opacity="1"></stop></linearGradient></defs><g transform="translate(900, 0)"><path d="M0 351.5C-40.4 334.3 -80.9 317 -125.5 303C-170.2 289.1 -219.1 278.4 -248.6 248.6C-278.1 218.8 -288.2 169.8 -302.1 125.1C-316 80.5 -333.8 40.3 -351.5 0L0 0Z" fill="#262626"></path></g><g transform="translate(0, 600)"><path d="M0 -351.5C48.5 -349.5 97 -347.5 134.5 -324.8C172.1 -302 198.7 -258.5 221.3 -221.3C244 -184.1 262.6 -153.3 283.6 -117.5C304.7 -81.7 328.1 -40.8 351.5 0L0 0Z" fill="#262626"></path></g></svg>